<svg xmlns="http://www.w3.org/2000/svg" viewBox="0 0 72.23 75"><defs><style>.b67bef7d-6ab8-4b40-bb6e-c5574b97aeaa{fill:#0e8ddb;}</style></defs><title>almanaque</title><g id="ba7af61e-297f-40d5-bafa-e80751e0513f" data-name="Capa 2"><g id="a05df440-6583-417e-b163-74253a74cda3" data-name="Capa 1"><path class="b67bef7d-6ab8-4b40-bb6e-c5574b97aeaa" d="M72.23,15.84a9.85,9.85,0,0,0-5.11-9,9.15,9.15,0,0,0-4.68-1.26h-4.1c0-1,0-1.92,0-2.84A2.79,2.79,0,0,0,55.47,0,2.76,2.76,0,0,0,52.8,2.82c0,.64,0,1.27,0,1.91V5.5H19.44V3a2.79,2.79,0,1,0-5.56,0c0,.82,0,1.64,0,2.54h-3.8A9.9,9.9,0,0,0,.16,13.8,12.21,12.21,0,0,0,0,16.06Q0,40.27,0,64.47C0,70,3.08,73.78,8.54,74.89a.87.87,0,0,1,.18.11H63.51c.47-.12.94-.23,1.4-.36a10,10,0,0,0,7.32-9.87q0-9.42,0-18.83Zm-66.68,7c0-2.32,0-4.64,0-7,0-3,1.82-4.76,4.81-4.76h3.53c0,1,0,1.9,0,2.82a2.77,2.77,0,1,0,5.54-.1c0-.64,0-1.27,0-1.9v-.77H52.79c0,.86,0,1.7,0,2.55a2.78,2.78,0,1,0,5.55,0c0-.85,0-1.7,0-2.56a37.21,37.21,0,0,1,4.85,0A3.92,3.92,0,0,1,66.6,15c.12,2.82,0,5.65,0,8.54H5.55ZM66.68,30V64.62a4.45,4.45,0,0,1-3.6,4.74,5.72,5.72,0,0,1-1.09.08H10.22a4.38,4.38,0,0,1-4.66-4.61q0-17.51,0-35c0-.19,0-.38,0-.62H66.68Z"/><rect class="b67bef7d-6ab8-4b40-bb6e-c5574b97aeaa" x="10.64" y="39.51" width="14.12" height="19.63" rx="2"/><rect class="b67bef7d-6ab8-4b40-bb6e-c5574b97aeaa" x="29.07" y="39.51" width="14.12" height="19.63" rx="2"/><rect class="b67bef7d-6ab8-4b40-bb6e-c5574b97aeaa" x="47.5" y="39.51" width="14.12" height="19.63" rx="2"/></g></g></svg>