<svg xmlns="http://www.w3.org/2000/svg" viewBox="0 0 38.31 51.78"><defs><style>.e5f7b939-6441-40e6-8af6-7967e147c49e{fill:#0e8cda;}</style></defs><title>ejercicio</title><g id="a58f3ecc-5c60-449e-81a6-371b11390739" data-name="Capa 2"><g id="e5fc3162-1778-4ce7-8d8d-47971245fe85" data-name="Capa 1"><path class="e5f7b939-6441-40e6-8af6-7967e147c49e" d="M38.3,1.81C38.22.65,36.53-.62,31.6.33A21,21,0,0,0,18.22,9.17,80.49,80.49,0,0,0,11.1,21.34C10,23.6,9.15,26,8,28.18A138,138,0,0,0,1.66,43.11C1.09,44.67.52,46.23.1,47.83A2.91,2.91,0,0,0,1.36,51a3.13,3.13,0,0,0,3.43.49,3.23,3.23,0,0,0,1.5-2.08c1.59-4.7,3.35-9.33,5.39-13.86.07-.16.15-.31.25-.54.09.21.15.33.21.45,1.38,3,2.74,6,4.15,9C17.14,46.31,18,48.12,19,49.9A2.54,2.54,0,0,0,22,51.09a3.41,3.41,0,0,0,2.19-5q-3.36-7.17-6.69-14.36a5,5,0,0,1-.19-.7,8.39,8.39,0,0,0,1.43,0c3.4-.62,7-.66,10.44-1.3a2,2,0,0,0,1.69-1.5,4.09,4.09,0,0,0,.14-1.7,15.89,15.89,0,0,0-1.73-4.74,19,19,0,0,0-2.85-3.7L28.29,17A4.23,4.23,0,0,0,30,17.3a4.43,4.43,0,1,0-4.45-4.4,5,5,0,0,0,.12,1l-1.71,1.06a3.3,3.3,0,0,0-.22-.3C23.17,14,21.9,13,21.31,12.5a16.34,16.34,0,0,1,8.1-6.75,24.18,24.18,0,0,1,6.27-1.43C37.34,4.16,38.39,3.11,38.3,1.81ZM22.81,21.61c.76,1,3,3.25,3.78,4.28-1.78.33-6.2.61-7.81.92C18.74,26.77,21.78,23,22.81,21.61Z"/></g></g></svg>