<svg xmlns="http://www.w3.org/2000/svg" viewBox="0 0 61.22 75.68"><defs><style>.b1925ee4-ae6a-4ff9-b1f3-b27dd214dc4c,.faab3200-f5ca-4d57-988c-2c23cb63d3ae{fill:#0e8ddb;}.faab3200-f5ca-4d57-988c-2c23cb63d3ae{fill-rule:evenodd;}</style></defs><title>experiencia</title><g id="bc116c45-5814-4300-ae2e-18499966ca64" data-name="Capa 2"><g id="b97b7008-b8b1-4c4a-91d7-7155aaf38b22" data-name="Capa 1"><path class="faab3200-f5ca-4d57-988c-2c23cb63d3ae" d="M49,0H22.68C15.92,0,10.42,6,10.42,13.42l-.16,23.14A12.13,12.13,0,0,0,6,59V75.68L12.12,71l6.1,4.71V66.41a11.14,11.14,0,0,0,4.2.81h26.3c6.76,0,12.25-6,12.25-13.41v-5l.25-35.37C61.22,6,55.72,0,49,0ZM14,54.32a5.07,5.07,0,0,1-.95.23,4.94,4.94,0,0,1-1,.09,6.48,6.48,0,0,1-1.71-.25l-.22-.07a6.08,6.08,0,0,1,0-11.55l.19-.07a6.48,6.48,0,0,1,1.71-.24,5.89,5.89,0,0,1,1,.08,5.2,5.2,0,0,1,1,.24,6.07,6.07,0,0,1,0,11.54Zm43.11-5.53v5c0,5-3.77,9.1-8.41,9.1H22.42a7.9,7.9,0,0,1-4.2-1.22V59A12.13,12.13,0,0,0,14.1,36.59l.16-23.18c0-5,3.77-9.08,8.42-9.08H49c4.64,0,8.41,4.07,8.41,9.09Z"/><rect class="b1925ee4-ae6a-4ff9-b1f3-b27dd214dc4c" x="18.59" y="11.84" width="24.97" height="4.51"/><rect class="b1925ee4-ae6a-4ff9-b1f3-b27dd214dc4c" x="18.59" y="21.42" width="18.71" height="4.51"/><rect class="b1925ee4-ae6a-4ff9-b1f3-b27dd214dc4c" x="27.94" y="50.87" width="24.88" height="4.51"/><rect class="b1925ee4-ae6a-4ff9-b1f3-b27dd214dc4c" x="27.94" y="40.95" width="24.88" height="4.51"/><rect class="b1925ee4-ae6a-4ff9-b1f3-b27dd214dc4c" x="18.59" y="30.59" width="34.23" height="4.51"/></g></g></svg>