<svg xmlns="http://www.w3.org/2000/svg" viewBox="0 0 32 32"><defs><style>.a6aa1b4a-41e9-420b-a016-eaf82d474fc0{fill:#f7f7f7;}.b147e032-86fc-462a-921a-333082067430{fill:#abb1ba;}</style></defs><title>Recurso 5</title><g id="a6161fee-71e3-426d-ac1e-ac1bf7cc5ee4" data-name="Capa 2"><g id="b5418290-38c1-488f-ae83-c924e6d8983b" data-name="Capa 1"><circle cx="16" cy="16" r="16"/><path class="a6aa1b4a-41e9-420b-a016-eaf82d474fc0" d="M18.85,6.94a12.8,12.8,0,0,1,4.92.86,6.32,6.32,0,0,1,3.08,2.45L23.17,22a6.88,6.88,0,0,1-3.25,2.3,13.33,13.33,0,0,1-4.77.8h-10L10.87,6.94ZM12.19,20.66H15a5.83,5.83,0,0,0,3.22-.78l2.46-7.82a5,5,0,0,0-2.9-.72H15.12Z"/><path class="b147e032-86fc-462a-921a-333082067430" d="M23.91,16.84l-1.48,4.73a6.24,6.24,0,0,1-2.8,1.92,12.89,12.89,0,0,1-4.49.75H6.28l2-6.48,4-.23-1.25,4H15a6.69,6.69,0,0,0,3.67-.91l.25-.16,1.05-3.35Z"/></g></g></svg>