<svg xmlns="http://www.w3.org/2000/svg" viewBox="0 0 51 51"><defs><style>.afe61ceb-1120-42c2-bf3f-a8fbb9e4c36a{fill:#fff;}.f1081f6a-2a73-4068-b999-b043a127f597{fill:#001bdb;}</style></defs><title>instagram</title><g id="f426a5a4-8c9a-4f16-b537-66fd4cb38334" data-name="Capa 2"><g id="b7a77c42-bf9e-4f3b-9931-b2c56a5bbb91" data-name="Capa 1"><circle class="afe61ceb-1120-42c2-bf3f-a8fbb9e4c36a" cx="25.5" cy="25.5" r="25.5"/><path class="f1081f6a-2a73-4068-b999-b043a127f597" d="M35.79,9.31H15.21a5.9,5.9,0,0,0-5.9,5.9V35.79a5.9,5.9,0,0,0,5.9,5.9H35.79a5.9,5.9,0,0,0,5.9-5.9V15.21A5.9,5.9,0,0,0,35.79,9.31ZM25.5,19.17a6.21,6.21,0,1,1-6.2,6.21A6.21,6.21,0,0,1,25.5,19.17Zm12.92,15c0,2.64-1.18,4.79-3.75,5a3.4,3.4,0,0,1-.45,0H16.78a3.4,3.4,0,0,1-.45,0c-2.57-.22-3.75-2.37-3.75-5V25.5h3.55c.08,1,.38,9.85,9.37,9.85,8.61,0,9.29-8.87,9.37-9.85h3.55Z"/></g></g></svg>