<svg xmlns="http://www.w3.org/2000/svg" viewBox="0 0 58 76.25"><defs><style>.f632fcb5-40be-4aec-8b9d-9df9c9f1ff2a{fill:#0e8ddb;}.f1239f9c-ecb1-496d-9a8d-6c75c06f0190{fill:#6c6f75;}.ec01ae0e-fd7b-438a-af3e-5b482fcbf58a{fill:#abb1ba;}.f1b8f791-f534-49fe-9380-50ad1fa54bbc{fill:#e8140a;}.b8cce68b-fda7-405a-94eb-3a3aa569d364{fill:#f7f7f7;}</style></defs><title>logo</title><g id="ac4c883c-8151-46a3-a7ca-a0c0384d4305" data-name="Capa 2"><g id="a2d5ca08-be51-4154-b1a2-fe3db590b7e4" data-name="Capa 1"><path class="f632fcb5-40be-4aec-8b9d-9df9c9f1ff2a" d="M57.92,40.28A24.12,24.12,0,0,0,50.34,23.7,21.21,21.21,0,0,0,45.2,13.09a30.18,30.18,0,0,0-5-4.75L28.67,0,31.6,13.91a3.88,3.88,0,0,1-.31,1.95H31.1c-.65,0-1.35-.06-2.08-.06s-1.26,0-1.92,0a18.25,18.25,0,0,1-1-3.39L23.68.88l-7.29,9.27a26,26,0,0,0-3,5,16.84,16.84,0,0,0-1.66,8.37c-.87,1-1.58,1.76-2.1,2.4l-.34.4a11.6,11.6,0,0,0-2.77,6.15C2.43,35.27.59,37.57.18,40.45c-.32,2.24-.49,6.43,1.92,9.33a8.73,8.73,0,0,0,.73.76c.67,2.14,2.22,6,5.17,8.39l.07.63a13.24,13.24,0,0,0,1.84,5.25,11.48,11.48,0,0,0,9.16,5.56,12,12,0,0,0,1.95,3,8.92,8.92,0,0,0,6.77,2.91l.7,0a31.52,31.52,0,0,0,19.37-8.18A32.62,32.62,0,0,0,55.5,55.89,37.72,37.72,0,0,0,57.92,40.28Z"/><path d="M53.41,55.11a30.46,30.46,0,0,1-7.07,11.32,29.26,29.26,0,0,1-18,7.57l-.56,0a6.65,6.65,0,0,1-5.13-2.18,10.54,10.54,0,0,1-1.82-3l-.13-.28-.16-.4h-.73a9.23,9.23,0,0,1-8-4.53,11.21,11.21,0,0,1-1.54-4.33l-.16-1.55L9.4,57.2C6.66,55,5.29,51.05,4.84,49.47l-.06-.2-.16-.13a6.12,6.12,0,0,1-.81-.8C2,46.12,2.12,42.64,2.39,40.76c.32-2.28,2.06-4.26,6-6.81l.28-.18,0-.33A9.24,9.24,0,0,1,11,27.84c.13-.14.26-.3.4-.47.74-.91,1.77-2,2.5-2.83l.22-.23L14,24a14.1,14.1,0,0,1,1.39-7.89,23.55,23.55,0,0,1,2.73-4.58L22.47,6l1.42,6.86a19.61,19.61,0,0,0,1.64,4.87l.19.38.43,0c1-.06,2-.1,2.87-.1.7,0,1.37,0,2,.06h0c.47,0,.9,0,1.31.07h0l.47,0,.17-.47.09-.23a7.56,7.56,0,0,0,.7-4L32.05,5.2l6.83,5a27.91,27.91,0,0,1,4.61,4.38,18.7,18.7,0,0,1,4.71,10l0,.25.19.17c4.32,3.72,6.83,9.07,7.28,15.46A35.42,35.42,0,0,1,53.41,55.11Z"/><path class="f1239f9c-ecb1-496d-9a8d-6c75c06f0190" d="M51.87,48.51c-1.28,6.25-4.3,12-7.76,15.29a25,25,0,0,1-10.75,5.85c2.18-1.56,3.31-4,4-5.5a29.8,29.8,0,0,1,3.21-4.89h0c-4.2,1-5.51,2.8-8.28,6-1.87,2.18-5.13,3.06-7.8,3.39a10.53,10.53,0,0,1-.63-1.2A17.7,17.7,0,0,0,23,65.4a1.39,1.39,0,0,0-1.42-.82c-.39,0-.77.08-1.13.09A14.14,14.14,0,0,0,30.65,59.5q.34-.42.66-.87c-6.51,4.28-7.29.9-7.29.9a4.78,4.78,0,0,0,1.8-3.61c-.11-2.26-.45-5.09.52-7.66,1.28-3.41,5.36-6.66,5.36-6.66a7.47,7.47,0,0,0-4.94.06,4.73,4.73,0,0,0-1.78,1c-1,.72-3.41,4.36-5.07,5.11a11.48,11.48,0,0,1-5,1l-.39-.06A33.92,33.92,0,0,1,12,45c-.51.07-.3-.92-.67-.48.24-.37.57-.82.85-1.2s.65-.84.65-.84a4.09,4.09,0,0,0-.66-.5H12.1c-.09-.06-2.8-1.87,3-6.47,0,0,2.9-.3,3.38-1,1.31-1.85,1.57-3.25,3.8-3.65-1.8-.42,2.79-6,7.22-5.42,0,0-3.82-1.48-5.43-4.11a42.2,42.2,0,0,1,6.79-.23c2.24.07,4-1.6,4.76-1.18.18-3.07,2.12-3.7,1.35-7.37a25.71,25.71,0,0,1,4.85,4.87c.06,3.61-.15,12.74-3.75,15.07C45.73,34.39,51.42,39.43,51.87,48.51Z"/><path class="f1239f9c-ecb1-496d-9a8d-6c75c06f0190" d="M10.8,42.9s-1-1.11-5.24-.75c-.61.32-1.58,5,3.68,4.91C8.67,46.13,9.4,43.91,10.8,42.9Z"/><path class="ec01ae0e-fd7b-438a-af3e-5b482fcbf58a" d="M31.31,58.63q-.31.45-.66.87a14.14,14.14,0,0,1-10.24,5.17h0c-6.21.14-6.86-6-6.86-6,2.21,2.83,4,2.27,5,2.15,2.48-.29,4.56-.67,5.49-1.35C24,59.52,24.8,62.91,31.31,58.63Z"/><path class="ec01ae0e-fd7b-438a-af3e-5b482fcbf58a" d="M40.61,59.26a29.8,29.8,0,0,0-3.21,4.89c-.73,1.47-1.86,3.94-4,5.5a28.12,28.12,0,0,1-5.21.85,3.65,3.65,0,0,1-3.62-1.84c2.67-.33,5.93-1.21,7.8-3.39,2.77-3.21,4.08-5,8.28-6Z"/><path class="ec01ae0e-fd7b-438a-af3e-5b482fcbf58a" d="M29.52,25.42c-6.35,1.2-7.22,5.42-7.22,5.42-2.23.4-2.49,1.8-3.8,3.65-.48.68-3.38,1-3.38,1-5.82,4.6-3.11,6.41-3,6.47C9.68,40.53,5.62,41,5.62,41,7.3,37.75,14,34.23,14,34.23a3.49,3.49,0,0,0-2.11-.17,6,6,0,0,1,1.47-4.31l.49-.58c1.33-1.63,3.86-4.24,3.86-4.24h0c-2.27-5,3-11.63,3-11.63a19.72,19.72,0,0,0,3.38,8C25.7,23.94,29.52,25.42,29.52,25.42Z"/><path class="ec01ae0e-fd7b-438a-af3e-5b482fcbf58a" d="M51.87,48.51c-.45-9.08-6.14-14.12-13.78-16C41.69,30.14,41.9,21,41.84,17.4A13.82,13.82,0,0,1,45,26.19C52.25,31.31,53.55,40.31,51.87,48.51Z"/><path class="f1b8f791-f534-49fe-9380-50ad1fa54bbc" d="M26,46.83a9.35,9.35,0,0,1,3.55-4.44s-3.37,1.16-3.82,1.87a37.36,37.36,0,0,0-1.49,3.58,3.44,3.44,0,0,1-1.79,1.82s1,1.3,1.23,1.82a2.14,2.14,0,0,1,.08,2.25A2.82,2.82,0,0,0,25,51.15a4,4,0,0,1,0-1.49C25.11,49.16,25.64,47.78,26,46.83Z"/><path class="b8cce68b-fda7-405a-94eb-3a3aa569d364" d="M11.36,54.33a11.72,11.72,0,0,1-2.85-4.5c1,.06,2.48.32,2.48.32a9.66,9.66,0,0,0-.05,1.52,11,11,0,0,0,.21,1.89C11.21,53.81,11.27,54.07,11.36,54.33Z"/><path class="b8cce68b-fda7-405a-94eb-3a3aa569d364" d="M15.86,52.34a2.35,2.35,0,0,0-.21,1.22A16.39,16.39,0,0,1,11.55,52l-.06-.35c-.1-.44-.19-.89-.31-1.34A25.46,25.46,0,0,0,15.86,52.34Z"/><path class="b8cce68b-fda7-405a-94eb-3a3aa569d364" d="M18.66,56.27a7.13,7.13,0,0,1-2.74-3.92,12.58,12.58,0,0,0,2.25.48A13.46,13.46,0,0,0,18.66,56.27Z"/><path class="ec01ae0e-fd7b-438a-af3e-5b482fcbf58a" d="M21.2,50.13c-2.26,1.81-3,2.55-3,2.55a.76.76,0,0,1,0,.15,12.58,12.58,0,0,1-2.25-.48.24.24,0,0,1,0-.08.16.16,0,0,0,0,.07,25.46,25.46,0,0,1-4.68-2.08c0-.16-.09-.33-.14-.49,0,.13,0,.26,0,.38s-1.44-.26-2.48-.32c-.28-.7-.46-1.28-.55-1.59L7.9,48a3.17,3.17,0,0,0,1.55.26,2.39,2.39,0,0,0,.51-.1,11.67,11.67,0,0,0,5.57,2.49A8.6,8.6,0,0,0,21.2,50.13Z"/><path class="b8cce68b-fda7-405a-94eb-3a3aa569d364" d="M15.91,58,14.25,58a4.15,4.15,0,0,1-1-2.27A9.61,9.61,0,0,0,15.91,58Z"/><path class="b8cce68b-fda7-405a-94eb-3a3aa569d364" d="M22.15,57.14s0,.51-2.09.77c-.08-.25-.14-.49-.2-.75s-.13-.62-.19-.94l-.12-.62h0c0-.26-.06-.52-.07-.75A4.92,4.92,0,0,0,22.15,57.14Z"/><path class="ec01ae0e-fd7b-438a-af3e-5b482fcbf58a" d="M22.93,58.82a19.85,19.85,0,0,1-6.06,1A6,6,0,0,1,14.25,58l1.66.06h0c.07.13.15.26.23.38a3.12,3.12,0,0,0,.32.4,3.9,3.9,0,0,0,.38.33,5.37,5.37,0,0,1-.41-.88.69.69,0,0,1-.05-.13,16.78,16.78,0,0,0,3.3-.16l.15.24a4.16,4.16,0,0,0,.32.39,4,4,0,0,0,.38.34,5.78,5.78,0,0,1-.41-.88l-.06-.16c.33,0,.6-.09.83-.14l.14,0,.18,0,.11,0,.11,0,.09,0,0,0,.08,0,.07,0,.07,0,0,0,.08,0,.09-.06,0,0,0,0,0,0a.26.26,0,0,0,.08-.15,7.75,7.75,0,0,0,2.47-2.93S24.74,58,22.93,58.82Z"/><path d="M30.85,31.86s-2.5,1.39-2.92,2.46c-.51,1.33-1.45,3.25-5.61,3.55-3.35.23-7.2-2.4-7.2-2.4a11.44,11.44,0,0,0,2.77-1.35c1.36-1.34,1.8-3.07,3.79-3.83S30.85,31.86,30.85,31.86Z"/><path class="b8cce68b-fda7-405a-94eb-3a3aa569d364" d="M25.25,32.7a4.19,4.19,0,0,0-.82,1,8.79,8.79,0,0,0-.78,2.07,3.9,3.9,0,0,1-1.62.36c-2,0-2.44-.46-2.44-.46a3,3,0,0,0,1.24-1.23c.68-1.06,1-1.84,1.69-2A8.8,8.8,0,0,1,25.25,32.7Z"/><path class="ec01ae0e-fd7b-438a-af3e-5b482fcbf58a" d="M26.34,33.05a5.33,5.33,0,0,0-.76,1.07,4.25,4.25,0,0,1-1.93,1.69,8.79,8.79,0,0,1,.78-2.07,4.19,4.19,0,0,1,.82-1A4.23,4.23,0,0,1,26.34,33.05Z"/><path d="M44.44,58.68a32.11,32.11,0,0,0-3.83.58h0c-4.2,1-5.51,2.8-8.28,6-1.87,2.18-5.13,3.06-7.8,3.39l-.5.06a27.29,27.29,0,0,1-3.19.14l-.13-.28-.16-.4h-.73a4.88,4.88,0,0,1-.46-2.81,1,1,0,0,1,1-.7h0A14.14,14.14,0,0,0,30.65,59.5q.34-.42.66-.87h0c4.34-6.2,2.9-15,2.85-15.32C36.17,51.35,40.87,57.61,44.44,58.68Z"/><path d="M35.56,25.42s-3.27-2-3.2-7.27l.47,0,.17-.47,2.81,1A26.31,26.31,0,0,0,35.56,25.42Z"/><path d="M33.29,41.31s-2.92,1.39-5.24,7.2c-1,2.57-2.62,11.8-3.07,8.8a9.84,9.84,0,0,1,.28-4.91L25.93,48l1.74-3.26,2.62-2.5-1.29-1Z"/><path d="M25,42.63c-2,1.81-.89,4.9-4.3,6.43a8.29,8.29,0,0,1-4.5.71h0A12.45,12.45,0,0,1,11,47.67a1,1,0,0,1-.49-.9,17.69,17.69,0,0,0,4,1.91l.39.06a10.74,10.74,0,0,0,5.44-1.46C22.42,45.79,24,43.35,25,42.63Z"/><path class="ec01ae0e-fd7b-438a-af3e-5b482fcbf58a" d="M14.64,48.68a18.34,18.34,0,0,1-4.23-2,5.29,5.29,0,0,1,1.76-3.34A54.28,54.28,0,0,0,14.64,48.68Z"/></g></g></svg>