<svg xmlns="http://www.w3.org/2000/svg" viewBox="0 0 139 150.85"><defs><style>.f49e3166-6b56-441f-be49-225c5ebf1bff{fill:#fff;}.b1dadcdc-92ba-47ea-bd9c-ac26f8e09ed3{fill:#abb1ba;}.fb9d5ccb-5464-40c9-abac-1d73ca0bef7e{fill:#0e8ddb;}.b9458f76-4b67-4937-a190-e5f5221efd8d{fill:#f7f7f7;}.f44b9fa5-96b5-4cd4-b9eb-8da9df072ef0{fill:#6c6f75;}.b4795e86-f1ab-4aaf-89d5-5543af111240{fill:#e8140a;}</style></defs><title>logo</title><g id="f5fd1d2c-921a-4500-bbe2-97009215a167" data-name="Capa 2"><g id="afa5f890-ea04-449b-a01c-775507a6b65d" data-name="Capa 1"><path class="f49e3166-6b56-441f-be49-225c5ebf1bff" d="M138.79,7.55,110.7,114.23l-3.22,0L135.16,10.62c.92-3.37-1.48-7.55-4.8-7.55H8.64c-3.32,0-5.72,4.18-4.8,7.55L31.52,114.18l-3.22,0L.21,7.55C-.76,4.18,1.77,0,5.27,0H133.73C137.23,0,139.76,4.18,138.79,7.55Z"/><path class="b1dadcdc-92ba-47ea-bd9c-ac26f8e09ed3" d="M135.16,10.62,107.48,114.18l-1.46-.11,26.7-101.84c1-3.37,0-7.12-5.07-7H11.35c-4.53.09-6,3.68-5.07,7.05L33,114.07l-1.46.11L3.84,10.62C2.58,5.91,5.32,2.74,8.64,2.74H130.36C133.68,2.74,136.65,5.57,135.16,10.62Z"/><path class="fb9d5ccb-5464-40c9-abac-1d73ca0bef7e" d="M133.72,113.54a21.87,21.87,0,0,0-7.42-1.14,26.1,26.1,0,0,0-6.62.82,22.87,22.87,0,0,0-6.41-.82,27.62,27.62,0,0,0-3.89.27h-6.29l4.39-15.52-5.2-1.88A24.16,24.16,0,0,0,94.12,94a28.92,28.92,0,0,0-7.59,1,25.2,25.2,0,0,0-7.35-1,29,29,0,0,0-7.58,1,25.18,25.18,0,0,0-7.34-1,28.91,28.91,0,0,0-8.2,1.15L55,95.48l-.16-.07A15.41,15.41,0,0,0,49,94.32H38.76L33,112.67H23.64c-.41,0-4.71-.27-7.18-.27a26.09,26.09,0,0,0-7.42,1l-2.93.87-6,19.16,5.3,1.83a22.71,22.71,0,0,0,7.38,1.12,27.8,27.8,0,0,0,3.91-.27H32.45l4.22,14.7h63.92l4.3-13.76a6.44,6.44,0,0,0,.23-.94h.58a26.48,26.48,0,0,0,3.86.27,25.74,25.74,0,0,0,6.61-.82,23.81,23.81,0,0,0,6.43.82,24.9,24.9,0,0,0,7.46-1.07l2.87-.9,6-19Z"/><path d="M132.88,115.87a19.26,19.26,0,0,0-6.58-1,23.66,23.66,0,0,0-6.66.92,19.87,19.87,0,0,0-6.37-.92c-1.37,0-3.79.24-4.15.27h-9.4l4.7-16.47-3-1.08a21.76,21.76,0,0,0-7.32-1.11,26.5,26.5,0,0,0-7.5,1l-.14,0a22,22,0,0,0-7.3-1.09,26.46,26.46,0,0,0-7.48,1l-.15,0a21.63,21.63,0,0,0-7.29-1.1,26.48,26.48,0,0,0-7.49,1l-1.68.5-.07.22a9.75,9.75,0,0,0-1.12-.56,13,13,0,0,0-4.94-.9H40.57l-5.79,18.35H25c-.44,0-6.2-.27-8.58-.27a23.25,23.25,0,0,0-6.71.94l-1.68.5L3.15,131.92l3,1.05a20.27,20.27,0,0,0,6.57,1,25.19,25.19,0,0,0,3.73-.27H34.8l4.27,14.7h59.7l4.73-15.06.42-.07a20.93,20.93,0,0,0,5.64.7,22.43,22.43,0,0,0,6.64-.93,20.2,20.2,0,0,0,6.4.93,22.59,22.59,0,0,0,6.72-.95l1.64-.52,4.9-15.54Z"/><path class="b9458f76-4b67-4937-a190-e5f5221efd8d" d="M49,100.09a9.6,9.6,0,0,1,3.68.65A4.7,4.7,0,0,1,55,102.57l-2.75,8.77a5.23,5.23,0,0,1-2.44,1.73,10.11,10.11,0,0,1-3.58.6H38.7L43,100.09Zm-5,10.28h2.08a4.31,4.31,0,0,0,2.4-.58l1.85-5.86a3.73,3.73,0,0,0-2.18-.54H46.17Z"/><path class="b9458f76-4b67-4937-a190-e5f5221efd8d" d="M70.47,100.69l-3.9,12.38a22,22,0,0,1-6.52.91,19.37,19.37,0,0,1-6.24-.91l3.9-12.38a22.79,22.79,0,0,1,6.55-.91A18.34,18.34,0,0,1,70.47,100.69Zm-11.68,10H63.1l2.39-7.6H61.18Z"/><path class="b9458f76-4b67-4937-a190-e5f5221efd8d" d="M85.41,100.69l-1.28,4H79.9l.52-1.66h-4.3l-2.39,7.6H78l.58-1.86h-2l.8-2.52h6.24l-2.13,6.77A22,22,0,0,1,75,114a19.43,19.43,0,0,1-6.25-.91l3.9-12.38a22.82,22.82,0,0,1,6.54-.91A18.42,18.42,0,0,1,85.41,100.69Z"/><path class="b9458f76-4b67-4937-a190-e5f5221efd8d" d="M100.32,100.69l-3.9,12.38a21.93,21.93,0,0,1-6.51.91,19.39,19.39,0,0,1-6.25-.91l3.9-12.38a22.81,22.81,0,0,1,6.56-.91A18.31,18.31,0,0,1,100.32,100.69Zm-11.67,10H93l2.39-7.6H91Z"/><path class="b1dadcdc-92ba-47ea-bd9c-ac26f8e09ed3" d="M52.75,107.51l-1.11,3.54a4.66,4.66,0,0,1-2.09,1.43,9.45,9.45,0,0,1-3.37.57H39.54l1.53-4.85,3-.18-.93,3h2.92a5,5,0,0,0,2.74-.68l.19-.12.79-2.51Z"/><path class="b1dadcdc-92ba-47ea-bd9c-ac26f8e09ed3" d="M68,106.6l-1.88,6a21.74,21.74,0,0,1-6,.79,19.46,19.46,0,0,1-5.46-.7l1.69-5.36,3-.18L58,111.3h5.61L65,106.78Z"/><path class="b1dadcdc-92ba-47ea-bd9c-ac26f8e09ed3" d="M82.8,106.92,81,112.57a21.79,21.79,0,0,1-6,.79,19.53,19.53,0,0,1-5.47-.7l2-6.27,3-.17-1.6,5.08h5.61l1-3.1h-2l.4-1.28Z"/><path class="b1dadcdc-92ba-47ea-bd9c-ac26f8e09ed3" d="M98.38,104.8l-2.45,7.77a21.67,21.67,0,0,1-6,.79,19.48,19.48,0,0,1-5.47-.7l2.26-7.17,3-.18-1.88,6h5.61l2-6.33Z"/><path class="f49e3166-6b56-441f-be49-225c5ebf1bff" d="M21.92,119l-1.23,3.9H17l.56-1.8H13.74l-2.1,6.69h3.79L16,126h3.73l-1.23,3.89a19,19,0,0,1-5.74.8,16.69,16.69,0,0,1-5.49-.8L10.69,119a20.32,20.32,0,0,1,5.77-.8A16.3,16.3,0,0,1,21.92,119Z"/><path class="f49e3166-6b56-441f-be49-225c5ebf1bff" d="M31.39,130.38H28l.15-2.23H24.39l-1.26,2.23H19.31l7.11-11.94h5.33Zm-2.77-9.74-2.69,4.78H28.3Z"/><path class="f49e3166-6b56-441f-be49-225c5ebf1bff" d="M42.67,127.4l-.94,3H32.38l3.77-11.94h3.72l-2.83,9Z"/><path class="f49e3166-6b56-441f-be49-225c5ebf1bff" d="M43.18,130.38,47,118.44h3.82L47,130.38Z"/><path class="f49e3166-6b56-441f-be49-225c5ebf1bff" d="M58.88,121.06h-3.5l-.48,1.54,6.56,1.55-1.8,5.7a17.13,17.13,0,0,1-5.46.8,13.32,13.32,0,0,1-5.15-.8l1.07-3.39h3.55l-.39,1.29h3.5l.48-1.55-6.57-1.55L52.48,119a17.5,17.5,0,0,1,5.48-.8,13,13,0,0,1,5.13.8L62,122.34H58.49Z"/><path class="f49e3166-6b56-441f-be49-225c5ebf1bff" d="M71.27,121.44l-2.82,8.94H64.73l2.82-8.94H63.79l.94-3H76l-.94,3Z"/><path class="f49e3166-6b56-441f-be49-225c5ebf1bff" d="M80,121.34,79.53,123h4.88l-.85,2.73H78.67l-.56,1.79h6.14l-.9,2.9H73.64l3.77-11.94h9.71l-.92,2.9Z"/><path class="f49e3166-6b56-441f-be49-225c5ebf1bff" d="M96.32,130.38H92.55l-1.79-6.52-2.07,6.52H85.07l3.76-11.94H92.6l1.81,6.48,2-6.48h3.61Z"/><path class="f49e3166-6b56-441f-be49-225c5ebf1bff" d="M98.2,130.38,102,118.44h3.82L102,130.38Z"/><path class="f49e3166-6b56-441f-be49-225c5ebf1bff" d="M118.73,119l-1.23,3.9h-3.72l.56-1.8h-3.79l-2.1,6.69h3.79l.56-1.79h3.72l-1.22,3.89a19,19,0,0,1-5.74.8,16.69,16.69,0,0,1-5.49-.8L107.5,119a20.27,20.27,0,0,1,5.77-.8A16.3,16.3,0,0,1,118.73,119Z"/><path class="f49e3166-6b56-441f-be49-225c5ebf1bff" d="M131.76,119l-3.43,10.89a18.89,18.89,0,0,1-5.73.8,16.75,16.75,0,0,1-5.5-.8L120.53,119a20.37,20.37,0,0,1,5.77-.8A16.3,16.3,0,0,1,131.76,119Zm-10.27,8.79h3.79l2.1-6.69h-3.79Z"/><path class="f49e3166-6b56-441f-be49-225c5ebf1bff" d="M130.09,122.14l-2.26,7.2a18.93,18.93,0,0,1-5.23.68,17,17,0,0,1-4.69-.59l2.22-7,2.39-.06-1.9,6.06h5.13l1.94-6.19Z"/><path class="b1dadcdc-92ba-47ea-bd9c-ac26f8e09ed3" d="M18.84,126.6,18,129.34a18.93,18.93,0,0,1-5.23.68,17,17,0,0,1-4.69-.59l1.34-4.24,2.4-.07-1,3.27H15.9l.56-1.79Z"/><path class="b1dadcdc-92ba-47ea-bd9c-ac26f8e09ed3" d="M29,124.69l-.09,1.37H24.83l.72-1.28-2.2,0-2.92,4.91h2.32L24,127.51H28.8l-.16,2.23h2.13l.15-5.1Z"/><polygon class="b1dadcdc-92ba-47ea-bd9c-ac26f8e09ed3" points="41.8 128.04 41.26 129.74 33.25 129.74 34.89 124.54 37.28 124.48 36.16 128.04 41.8 128.04"/><polygon class="b1dadcdc-92ba-47ea-bd9c-ac26f8e09ed3" points="48.28 124.2 46.53 129.74 44.05 129.74 45.78 124.27 48.28 124.2"/><path class="b1dadcdc-92ba-47ea-bd9c-ac26f8e09ed3" d="M60.64,124.62l-1.49,4.72a16.93,16.93,0,0,1-4.95.68,14.56,14.56,0,0,1-4.36-.55l.75-2.37h2.22l-.39,1.29h4.83l.82-2.66-6.56-1.55v-.06l6.36-.16Z"/><polygon class="b1dadcdc-92ba-47ea-bd9c-ac26f8e09ed3" points="69.9 123.66 67.98 129.74 65.61 129.74 67.5 123.72 69.9 123.66"/><path class="b1dadcdc-92ba-47ea-bd9c-ac26f8e09ed3" d="M78.2,125.05h4.89l.45-1.45H76.45l-1.94,6.14h8.37l.5-1.62H77.24Z"/><polygon class="b1dadcdc-92ba-47ea-bd9c-ac26f8e09ed3" points="88 123.2 90.31 123.14 88.22 129.74 85.95 129.74 88 123.2"/><polygon class="b1dadcdc-92ba-47ea-bd9c-ac26f8e09ed3" points="97.98 122.95 95.85 129.74 93.04 129.74 91.22 123.12 93.23 123.07 94.37 127.17 95.68 123.01 97.98 122.95"/><polygon class="b1dadcdc-92ba-47ea-bd9c-ac26f8e09ed3" points="103.74 122.81 101.55 129.74 99.07 129.74 101.24 122.87 103.74 122.81"/><path class="b1dadcdc-92ba-47ea-bd9c-ac26f8e09ed3" d="M115.65,126.6l-.86,2.74a18.93,18.93,0,0,1-5.23.68,17,17,0,0,1-4.69-.59l2.11-6.71,2.4-.06-1.8,5.73h5.13l.56-1.79Z"/><path class="b1dadcdc-92ba-47ea-bd9c-ac26f8e09ed3" d="M127.69,122.2l-1.94,6.19h-5.13l1.9-6.06-2.39.06-2.22,7a17,17,0,0,0,4.69.59,18.93,18.93,0,0,0,5.23-.68l2.26-7.2Z"/><polygon class="f49e3166-6b56-441f-be49-225c5ebf1bff" points="81.3 117.5 82.7 115.04 85.98 115.04 83.83 117.5 81.3 117.5"/><polygon class="b1dadcdc-92ba-47ea-bd9c-ac26f8e09ed3" points="82.4 116.86 83.07 115.68 84.57 115.68 83.54 116.86 82.4 116.86"/><path class="f49e3166-6b56-441f-be49-225c5ebf1bff" d="M45.39,135.81H39.57l.5-1.63H53.35l-.5,1.63h-5.8l-2.91,9.28H42.49Z"/><path class="f49e3166-6b56-441f-be49-225c5ebf1bff" d="M52.13,142.45l1.75-5.63a3.91,3.91,0,0,1,3.48-2.64H67.64l-.5,1.63H56.86a1.53,1.53,0,0,0-1.33,1l-.61,2H66.2l-.52,1.65H54.4l-.62,2a.7.7,0,0,0,.68,1H64.74l-.5,1.65H54A1.87,1.87,0,0,1,52.13,142.45Z"/><path class="f49e3166-6b56-441f-be49-225c5ebf1bff" d="M79,140.46H69l-1.44,4.63H65.94l2.57-8.27A3.91,3.91,0,0,1,72,134.18h8a1.86,1.86,0,0,1,1.8,2.64l-2.57,8.27H77.58Zm1.13-3.64a.71.71,0,0,0-.67-1h-8a1.52,1.52,0,0,0-1.32,1l-.61,2h10Z"/><path class="f49e3166-6b56-441f-be49-225c5ebf1bff" d="M97.62,135.81h-.24l0,0-6.69,5.38a1.54,1.54,0,0,1-.94.4.84.84,0,0,1-.71-.4l-3.31-5.38s0,0,0,0h-.23l-2.9,9.28H80.88l3.05-9.74a1.74,1.74,0,0,1,1.55-1.17h.72a1.2,1.2,0,0,1,1,.56l3.07,4.91,6.13-4.91a2.44,2.44,0,0,1,1.41-.56h.73a.83.83,0,0,1,.81,1.17l-3,9.74H94.72Z"/><path class="fb9d5ccb-5464-40c9-abac-1d73ca0bef7e" d="M103.1,54.87c-.55-7.86-3.59-14.51-8.81-19.26a24.61,24.61,0,0,0-6-12.33,35,35,0,0,0-5.82-5.52L69.12,8.07l3.4,16.17a4.5,4.5,0,0,1-.36,2.25h-.22c-.76,0-1.57-.06-2.41-.06s-1.47,0-2.24,0a22.1,22.1,0,0,1-1.19-3.95L63.32,9.1,54.85,19.87a29.26,29.26,0,0,0-3.49,5.85,19.45,19.45,0,0,0-1.93,9.72c-1,1.11-1.84,2.05-2.44,2.79l-.4.46a13.46,13.46,0,0,0-3.21,7.14C38.63,49,36.5,51.72,36,55.06c-.38,2.6-.58,7.47,2.23,10.83a8.84,8.84,0,0,0,.84.89c.78,2.49,2.58,7,6,9.74l.07.74a15.53,15.53,0,0,0,2.15,6.1A13.35,13.35,0,0,0,58,89.81a14.08,14.08,0,0,0,2.25,3.46,10.36,10.36,0,0,0,7.87,3.37c.29,0,.56,0,.82,0a36.63,36.63,0,0,0,22.5-9.5A37.8,37.8,0,0,0,100.28,73,43.82,43.82,0,0,0,103.1,54.87Z"/><path d="M97.85,72.09a35.15,35.15,0,0,1-8.21,13.14A34,34,0,0,1,68.74,94c-.22,0-.44,0-.65,0a7.72,7.72,0,0,1-6-2.53A12.2,12.2,0,0,1,60,88.06l-.15-.33-.19-.46h-.84A10.73,10.73,0,0,1,49.54,82a13,13,0,0,1-1.78-5l-.19-1.8-.83-.67c-3.2-2.57-4.78-7.14-5.31-9l-.07-.23-.18-.14a7.5,7.5,0,0,1-.94-.93c-2.16-2.59-2-6.63-1.65-8.81.38-2.65,2.39-5,6.95-7.91l.32-.21,0-.38a10.81,10.81,0,0,1,2.65-6.51c.15-.16.3-.34.47-.55.86-1,2-2.36,2.91-3.28l.25-.26L52.1,36a16.41,16.41,0,0,1,1.62-9.18,27.71,27.71,0,0,1,3.16-5.31l5-6.39,1.64,8a22.6,22.6,0,0,0,1.91,5.67l.23.44.49,0c1.16-.07,2.28-.11,3.34-.11q1.22,0,2.31.06h0c.54,0,1,.05,1.52.09h0l.54.05.2-.55.1-.27c.6-1.71,1.13-3.17.81-4.69l-2-9.59L81,19.86A32.78,32.78,0,0,1,86.34,25c3.22,3.83,5.06,7.74,5.46,11.65l0,.29.23.2c5,4.32,7.94,10.53,8.45,18A41.1,41.1,0,0,1,97.85,72.09Z"/><path class="f44b9fa5-96b5-4cd4-b9eb-8da9df072ef0" d="M96.07,64.42c-1.49,7.26-5,14-9,17.77A29,29,0,0,1,74.56,89c2.54-1.81,3.85-4.67,4.7-6.38A34.75,34.75,0,0,1,83,76.91h0c-4.87,1.14-6.39,3.25-9.61,7-2.18,2.53-6,3.54-9.07,3.93a10.77,10.77,0,0,1-.72-1.39,20.45,20.45,0,0,0-1.1-2.4,1.61,1.61,0,0,0-1.64-1,12.49,12.49,0,0,1-1.31.1,16.42,16.42,0,0,0,11.88-6c.27-.33.53-.67.77-1-7.56,5-8.47,1-8.47,1A5.51,5.51,0,0,0,65.81,73c-.13-2.62-.53-5.92.6-8.9,1.49-4,6.23-7.74,6.23-7.74a8.73,8.73,0,0,0-5.74.08,5.38,5.38,0,0,0-2.07,1.12c-1.19.84-4,5.07-5.89,5.94a13.31,13.31,0,0,1-5.81,1.15,1.9,1.9,0,0,1-.45-.07,39.24,39.24,0,0,1-2.93-4.28c-.6.08-.35-1.07-.78-.55.27-.43.65-1,1-1.39l.75-1a5.38,5.38,0,0,0-.76-.57l0,0h0c-.11-.07-3.25-2.17,3.51-7.52,0,0,3.37-.34,3.93-1.13,1.52-2.15,1.82-3.78,4.41-4.24-2.1-.5,3.24-7,8.39-6.3,0,0-4.45-1.72-6.31-4.78a49.42,49.42,0,0,1,7.89-.26c2.6.08,4.61-1.86,5.52-1.37.21-3.57,2.47-4.3,1.57-8.56a30.19,30.19,0,0,1,5.64,5.66c.07,4.19-.18,14.79-4.36,17.51C88.94,48,95.54,53.88,96.07,64.42Z"/><path class="f44b9fa5-96b5-4cd4-b9eb-8da9df072ef0" d="M48.36,57.91s-1.17-1.3-6.09-.87c-.7.37-1.84,5.8,4.28,5.7C45.88,61.66,46.74,59.08,48.36,57.91Z"/><path class="b1dadcdc-92ba-47ea-bd9c-ac26f8e09ed3" d="M72.18,76.18c-.24.34-.5.68-.77,1a16.42,16.42,0,0,1-11.88,6h0c-7.21.17-8-6.91-8-6.91,2.57,3.29,4.61,2.63,5.79,2.5,2.89-.34,5.31-.77,6.38-1.56C63.71,77.22,64.62,81.15,72.18,76.18Z"/><path class="b1dadcdc-92ba-47ea-bd9c-ac26f8e09ed3" d="M83,76.91a35,35,0,0,0-3.72,5.68c-.85,1.71-2.16,4.57-4.7,6.38a30.75,30.75,0,0,1-6,1,4.24,4.24,0,0,1-4.21-2.13c3.11-.39,6.89-1.4,9.07-3.93,3.22-3.74,4.74-5.85,9.61-7Z"/><path class="b1dadcdc-92ba-47ea-bd9c-ac26f8e09ed3" d="M70.11,37.6c-7.38,1.4-8.39,6.3-8.39,6.3-2.59.46-2.89,2.09-4.41,4.24-.56.79-3.93,1.13-3.93,1.13-6.76,5.35-3.62,7.45-3.51,7.52-2.81-1.64-7.53-1.07-7.53-1.07,2-3.8,9.78-7.89,9.78-7.89a4,4,0,0,0-2.45-.19,7,7,0,0,1,1.71-5c.19-.21.38-.43.57-.67C53.49,40.07,56.43,37,56.43,37h0c-2.64-5.8,3.44-13.52,3.44-13.52a22.86,22.86,0,0,0,3.93,9.3C65.66,35.88,70.11,37.6,70.11,37.6Z"/><path class="b1dadcdc-92ba-47ea-bd9c-ac26f8e09ed3" d="M96.07,64.42c-.53-10.54-7.13-16.4-16-18.62,4.18-2.72,4.43-13.32,4.36-17.51,2.07,2.75,3.88,6.31,3.69,10.2C96.51,44.45,98,54.9,96.07,64.42Z"/><path class="b4795e86-f1ab-4aaf-89d5-5543af111240" d="M66,62.48a10.9,10.9,0,0,1,4.13-5.17s-3.92,1.35-4.44,2.17a45,45,0,0,0-1.73,4.16,3.93,3.93,0,0,1-2.08,2.11s1.11,1.51,1.43,2.12a2.49,2.49,0,0,1,.09,2.61,3.26,3.26,0,0,0,1.46-3,4.47,4.47,0,0,1,0-1.74C65,65.18,65.6,63.58,66,62.48Z"/><path class="b9458f76-4b67-4937-a190-e5f5221efd8d" d="M49,71.18A13.6,13.6,0,0,1,45.7,66a27.23,27.23,0,0,1,2.88.37,11.51,11.51,0,0,0-.06,1.76,13.61,13.61,0,0,0,.25,2.19C48.84,70.58,48.91,70.88,49,71.18Z"/><path class="b9458f76-4b67-4937-a190-e5f5221efd8d" d="M54.24,68.87A2.74,2.74,0,0,0,54,70.29a19.36,19.36,0,0,1-4.76-1.87c0-.13,0-.27-.08-.4-.1-.52-.21-1-.35-1.56A30.11,30.11,0,0,0,54.24,68.87Z"/><path class="b9458f76-4b67-4937-a190-e5f5221efd8d" d="M57.49,73.44a8.3,8.3,0,0,1-3.19-4.55,15.13,15.13,0,0,0,2.62.55A15.28,15.28,0,0,0,57.49,73.44Z"/><path class="b1dadcdc-92ba-47ea-bd9c-ac26f8e09ed3" d="M60.44,66.3c-2.63,2.11-3.5,3-3.5,3s0,.11,0,.17a15.13,15.13,0,0,1-2.62-.55.65.65,0,0,0,0-.1.3.3,0,0,0,0,.08,30.11,30.11,0,0,1-5.44-2.41c0-.19-.11-.38-.17-.57,0,.15,0,.29-.05.44A27.23,27.23,0,0,0,45.7,66c-.32-.82-.53-1.49-.64-1.85-.05-.17-.07-.27-.07-.27a3.55,3.55,0,0,0,1.81.3,2.46,2.46,0,0,0,.58-.11,13.71,13.71,0,0,0,6.47,2.89C58,67.71,60.33,66.37,60.44,66.3Z"/><path class="b9458f76-4b67-4937-a190-e5f5221efd8d" d="M54.29,75.49c-.59,0-1.23,0-1.93-.07a4.81,4.81,0,0,1-1.18-2.63A11.19,11.19,0,0,0,54.29,75.49Z"/><path class="b9458f76-4b67-4937-a190-e5f5221efd8d" d="M61.55,74.45s0,.59-2.44.89c-.09-.28-.16-.57-.23-.87s-.14-.72-.22-1.09l-.13-.72h0a6.91,6.91,0,0,1-.09-.88A5.75,5.75,0,0,0,61.55,74.45Z"/><path class="b1dadcdc-92ba-47ea-bd9c-ac26f8e09ed3" d="M62.45,76.4a23.5,23.5,0,0,1-7,1.19,7,7,0,0,1-3.06-2.17c.7,0,1.34.06,1.93.07h0c.08.15.17.3.26.44a4.11,4.11,0,0,0,.38.45,3.16,3.16,0,0,0,.43.39,7.25,7.25,0,0,1-.48-1c0-.05,0-.1,0-.15a19.41,19.41,0,0,0,3.83-.19l.18.28a4.14,4.14,0,0,0,.37.46,3.16,3.16,0,0,0,.44.38,6.6,6.6,0,0,1-.48-1c0-.07,0-.13-.07-.19.38,0,.7-.1,1-.16l.16,0,.21-.06.13,0,.12,0,.11,0,0,0,.09,0,.09,0,.07,0,0,0,.09,0,.1-.07,0,0,0,0,0,0a.28.28,0,0,0,.1-.17A9,9,0,0,0,64.42,71S64.55,75.41,62.45,76.4Z"/><path d="M71.65,45.08s-2.91,1.61-3.39,2.86c-.6,1.54-1.68,3.77-6.52,4.12-3.89.27-8.36-2.79-8.36-2.79a13.25,13.25,0,0,0,3.21-1.56c1.59-1.56,2.09-3.57,4.41-4.46S71.65,45.08,71.65,45.08Z"/><path class="b9458f76-4b67-4937-a190-e5f5221efd8d" d="M65.15,46.05a4.75,4.75,0,0,0-1,1.21,10.05,10.05,0,0,0-.9,2.41,4.65,4.65,0,0,1-1.89.42c-2.37,0-2.83-.54-2.83-.54A3.43,3.43,0,0,0,60,48.12c.79-1.23,1.14-2.13,2-2.28A11,11,0,0,1,65.15,46.05Z"/><path class="b1dadcdc-92ba-47ea-bd9c-ac26f8e09ed3" d="M66.4,46.47a6.29,6.29,0,0,0-.88,1.24,4.87,4.87,0,0,1-2.23,2,10.05,10.05,0,0,1,.9-2.41,4.75,4.75,0,0,1,1-1.21A4.54,4.54,0,0,1,66.4,46.47Z"/><path d="M87.43,76.23a35.67,35.67,0,0,0-4.44.68h0c-4.87,1.14-6.39,3.25-9.61,7-2.18,2.53-6,3.54-9.06,3.93l-.58.07a32.67,32.67,0,0,1-3.71.16l-.15-.33-.19-.46h-.84A5.59,5.59,0,0,1,58.31,84a1.18,1.18,0,0,1,1.2-.82h0a16.42,16.42,0,0,0,11.88-6c.27-.33.53-.67.77-1h0c5-7.2,3.37-17.4,3.31-17.79C77.83,67.72,83.29,75,87.43,76.23Z"/><path d="M77.11,37.6s-3.79-2.3-3.7-8.44l.54.05.2-.55,3.26,1.15A30.32,30.32,0,0,0,77.11,37.6Z"/><path d="M74.49,56.06s-3.39,1.62-6.09,8.36c-1.19,3-3.05,13.71-3.57,10.23a11.36,11.36,0,0,1,.33-5.71l.77-5.1,2-3.79,3-2.9L69.5,56Z"/><path d="M64.83,57.59c-2.31,2.11-1,5.69-5,7.48a9.67,9.67,0,0,1-5.23.81h0a14.57,14.57,0,0,1-6-2.43A1.21,1.21,0,0,1,48,62.4a20.51,20.51,0,0,0,4.64,2.21,1.9,1.9,0,0,0,.45.07A12.29,12.29,0,0,0,59.45,63C61.86,61.26,63.64,58.43,64.83,57.59Z"/><path class="b1dadcdc-92ba-47ea-bd9c-ac26f8e09ed3" d="M52.82,64.61a21.73,21.73,0,0,1-4.92-2.34c0-.8.48-2.22,2.05-3.88A61.68,61.68,0,0,0,52.82,64.61Z"/></g></g></svg>