<svg xmlns="http://www.w3.org/2000/svg" viewBox="0 0 75 75"><defs><style>.e66f75ff-08b6-4ad4-8237-3bbabf4f07b1{fill:#0e8ddb;}</style></defs><title>material de entrenamiento</title><g id="e18b9c9d-f821-41a4-9c2e-22060739acca" data-name="Capa 2"><g id="f586087a-f596-4d59-9b00-17e8000be500" data-name="Capa 1"><path class="e66f75ff-08b6-4ad4-8237-3bbabf4f07b1" d="M60.7,0H14.3A14.27,14.27,0,0,0,0,14.2V71.87A3.15,3.15,0,0,0,3.16,75a3.15,3.15,0,0,0,3.17-3.13V14.2a8,8,0,0,1,8-7.95H60.7a8,8,0,0,1,8,8V71.87a3.17,3.17,0,0,0,6.33,0V14.2A14.27,14.27,0,0,0,60.7,0Z"/><path class="e66f75ff-08b6-4ad4-8237-3bbabf4f07b1" d="M22.65,54.62l5.86-2.48a2.38,2.38,0,0,1,2.24.21,3,3,0,0,1,.39.32,2.39,2.39,0,0,1,.67,1.67l0,6.73,11.06.06,0-6.62a2.38,2.38,0,0,1,3.35-2.15L52.05,55a2.52,2.52,0,0,1,.73.51,2.34,2.34,0,0,1,.67,1.67l0,4,2.76,0a2.32,2.32,0,0,1,1.68.72,2.37,2.37,0,0,1-1.71,4l-2.76,0,0,4.23a2.39,2.39,0,0,1-1.45,2.17l-5.87,2.47a2.36,2.36,0,0,1-3.29-2.2l0-6.73-11.06-.06,0,6.62a2.39,2.39,0,0,1-1.09,2,2.36,2.36,0,0,1-2.26.17L22.53,72a2.38,2.38,0,0,1-1.41-2.18l0-4h-2.5a2.38,2.38,0,1,1,0-4.75h2.49l0-4.22A2.36,2.36,0,0,1,22.65,54.62Z"/><path class="e66f75ff-08b6-4ad4-8237-3bbabf4f07b1" d="M48.74,21.35c1.91-4.62-.24-9.7-5.24-9.7H31.14c-5.11,0-7.63,5.27-5.52,9.92l2,4A12.62,12.62,0,1,0,47,25.1ZM30,23.24,28.9,20c-.85-2.44.09-5,2.68-5H42.81c2.54,0,3.1,2.47,2.33,4.89l-.72,3A12.62,12.62,0,0,0,30,23.24Z"/></g></g></svg>