<svg xmlns="http://www.w3.org/2000/svg" viewBox="0 0 51.78 51.78"><defs><style>.bc165dba-d89f-4713-a41f-230487bebcae{fill:#0e8cda;}</style></defs><title>reloj</title><g id="edc8d018-8ffb-4b7c-99e8-5707785f9d28" data-name="Capa 2"><g id="b2c728ba-7d75-4f9e-94c4-e7544ace793c" data-name="Capa 1"><path class="bc165dba-d89f-4713-a41f-230487bebcae" d="M28.7,51.63A25.89,25.89,0,1,1,51.63,28.7,25.91,25.91,0,0,1,28.7,51.63ZM21.6,5.93A20.42,20.42,0,1,0,46.31,26.12,20.29,20.29,0,0,0,29,5.73h0a1.46,1.46,0,0,0-1.68,1.44V22.55A1.35,1.35,0,0,0,28.7,23.9h4.09a1.32,1.32,0,0,1,1.32,1.31v1.36a1.32,1.32,0,0,1-1.32,1.32H24.71a1.35,1.35,0,0,1-1.35-1.35V7.35A1.46,1.46,0,0,0,21.6,5.93Z"/></g></g></svg>