<svg xmlns="http://www.w3.org/2000/svg" viewBox="0 0 36.84 51.32"><defs><style>.adb6858f-4582-4a2d-b145-5408c736dc11{fill:#0e8ddb;fill-rule:evenodd;}</style></defs><title>ubicacion</title><g id="f235158e-093b-4fed-9532-da5421cb934a" data-name="Capa 2"><g id="be485816-bf2a-4b98-a88a-3b413201e62c" data-name="Capa 1"><path class="adb6858f-4582-4a2d-b145-5408c736dc11" d="M36.8,18.46A18.13,18.13,0,0,0,25.44,1.37,18.51,18.51,0,0,0,5.29,5.46,18.29,18.29,0,0,0,1.54,25.67C5.33,34.58,11,42.29,16.72,50c1.41,1.92,2.21,1.62,3.53-.1A134.32,134.32,0,0,0,34.44,27.76C35.92,24.75,37.06,21.58,36.8,18.46ZM18.62,29A10.53,10.53,0,1,1,29.15,18.5,10.53,10.53,0,0,1,18.62,29Z"/></g></g></svg>