<svg xmlns="http://www.w3.org/2000/svg" viewBox="0 0 51 51"><defs><style>.b4c298b5-6cfa-47e5-974d-faa31b1b579e{fill:#fff;}.f07a7188-d883-4bac-aac7-91525977b3b2{fill:#001bdb;}</style></defs><title>whatsapp</title><g id="a92c0576-e7a7-4d70-81d1-6559c99a0279" data-name="Capa 2"><g id="abef6e07-57f4-4b85-a357-764794954b6b" data-name="Capa 1"><circle class="b4c298b5-6cfa-47e5-974d-faa31b1b579e" cx="25.5" cy="25.5" r="25.5"/><path class="f07a7188-d883-4bac-aac7-91525977b3b2" d="M25.5,9.39A15.79,15.79,0,0,0,11.69,32.85L9.7,41,19,39.59A15.8,15.8,0,1,0,25.5,9.39Zm8.39,21.84a6.42,6.42,0,0,1-2.5,2,6.78,6.78,0,0,1-6.2-1.13,25.4,25.4,0,0,1-6.84-6.79,7.61,7.61,0,0,1-1.42-5,5.49,5.49,0,0,1,2.18-3.66.88.88,0,0,1,1.22.05,21.62,21.62,0,0,1,2.86,2.88A1,1,0,0,1,23,21.09c-.32.29-.63.62-.93.95a1.17,1.17,0,0,0,0,1.9q2.2,2.22,4.43,4.42a1.21,1.21,0,0,0,1.81,0c.4-.37.76-.79,1.16-1.16a1,1,0,0,1,1.47,0c1,.94,1.93,1.9,2.87,2.88A.82.82,0,0,1,33.89,31.23Z"/></g></g></svg>